<svg width="92" height="40" viewBox="0 0 92 40" fill="none" xmlns="http://www.w3.org/2000/svg">
<g id="Logo">
<g id="SafeHome">
<path d="M3.504 26.0962C2.8 26.0962 2.128 26.0002 1.488 25.8082C0.858667 25.6162 0.362667 25.3816 0 25.1042L0.64 23.8882C1.00267 24.1336 1.45067 24.3416 1.984 24.5122C2.51733 24.6829 3.06133 24.7682 3.616 24.7682C4.33067 24.7682 4.84267 24.6669 5.152 24.4642C5.472 24.2616 5.632 23.9789 5.632 23.6162C5.632 23.3496 5.536 23.1416 5.344 22.9922C5.152 22.8429 4.896 22.7309 4.576 22.6562C4.26667 22.5816 3.92 22.5176 3.536 22.4642C3.152 22.4002 2.768 22.3256 2.384 22.2402C2 22.1442 1.648 22.0162 1.328 21.8562C1.008 21.6856 0.752 21.4562 0.56 21.1682C0.368 20.8696 0.272 20.4749 0.272 19.9842C0.272 19.4722 0.416 19.0242 0.704 18.6402C0.992 18.2562 1.39733 17.9629 1.92 17.7602C2.45333 17.5469 3.08267 17.4402 3.808 17.4402C4.36267 17.4402 4.92267 17.5096 5.488 17.6482C6.064 17.7762 6.53333 17.9629 6.896 18.2082L6.24 19.4242C5.856 19.1682 5.456 18.9922 5.04 18.8962C4.624 18.8002 4.208 18.7522 3.792 18.7522C3.12 18.7522 2.61867 18.8642 2.288 19.0882C1.95733 19.3016 1.792 19.5789 1.792 19.9202C1.792 20.2082 1.888 20.4322 2.08 20.5922C2.28267 20.7416 2.53867 20.8589 2.848 20.9442C3.168 21.0296 3.52 21.1042 3.904 21.1682C4.288 21.2216 4.672 21.2962 5.056 21.3922C5.44 21.4776 5.78667 21.6002 6.096 21.7602C6.416 21.9202 6.672 22.1442 6.864 22.4322C7.06667 22.7202 7.168 23.1042 7.168 23.5842C7.168 24.0962 7.01867 24.5389 6.72 24.9122C6.42133 25.2856 6 25.5789 5.456 25.7922C4.912 25.9949 4.26133 26.0962 3.504 26.0962Z" fill="white"/>
<path d="M14.3516 26.0002V24.2082L14.2716 23.8722V20.8162C14.2716 20.1656 14.0796 19.6642 13.6956 19.3122C13.3223 18.9496 12.757 18.7682 11.9996 18.7682C11.4983 18.7682 11.0076 18.8536 10.5276 19.0242C10.0476 19.1842 9.64229 19.4029 9.31163 19.6802L8.67163 18.5282C9.10896 18.1762 9.63163 17.9096 10.2396 17.7282C10.8583 17.5362 11.5036 17.4402 12.1756 17.4402C13.3383 17.4402 14.2343 17.7229 14.8636 18.2882C15.493 18.8536 15.8076 19.7176 15.8076 20.8802V26.0002H14.3516ZM11.5676 26.0962C10.9383 26.0962 10.3836 25.9896 9.90363 25.7762C9.43429 25.5629 9.07162 25.2696 8.81563 24.8962C8.55963 24.5122 8.43163 24.0802 8.43163 23.6002C8.43163 23.1416 8.53829 22.7256 8.75163 22.3522C8.97563 21.9789 9.33296 21.6802 9.82363 21.4562C10.325 21.2322 10.997 21.1202 11.8396 21.1202H14.5276V22.2242H11.9036C11.1356 22.2242 10.6183 22.3522 10.3516 22.6082C10.085 22.8642 9.95162 23.1736 9.95162 23.5362C9.95162 23.9522 10.117 24.2882 10.4476 24.5442C10.7783 24.7896 11.237 24.9122 11.8236 24.9122C12.3996 24.9122 12.901 24.7842 13.3276 24.5282C13.765 24.2722 14.0796 23.8989 14.2716 23.4082L14.5756 24.4642C14.373 24.9656 14.0156 25.3656 13.5036 25.6642C12.9916 25.9522 12.3463 26.0962 11.5676 26.0962Z" fill="white"/>
<path d="M18.8741 26.0002V16.7682C18.8741 15.9362 19.1141 15.2749 19.5941 14.7842C20.0848 14.2829 20.7781 14.0322 21.6741 14.0322C22.0048 14.0322 22.3195 14.0749 22.6181 14.1602C22.9275 14.2349 23.1888 14.3576 23.4021 14.5282L22.9381 15.6962C22.7781 15.5682 22.5968 15.4722 22.3941 15.4082C22.1915 15.3336 21.9781 15.2962 21.7541 15.2962C21.3061 15.2962 20.9648 15.4242 20.7301 15.6802C20.4955 15.9256 20.3781 16.2936 20.3781 16.7842V17.9202L20.4101 18.6242V26.0002H18.8741ZM17.4341 18.7842V17.5202H22.8421V18.7842H17.4341Z" fill="white"/>
<path d="M27.9417 26.0962C27.0351 26.0962 26.2351 25.9096 25.5417 25.5362C24.8591 25.1629 24.3258 24.6509 23.9417 24.0002C23.5684 23.3496 23.3818 22.6029 23.3818 21.7602C23.3818 20.9176 23.5631 20.1709 23.9258 19.5202C24.2991 18.8696 24.8057 18.3629 25.4457 18.0002C26.0964 17.6269 26.8271 17.4402 27.6378 17.4402C28.4591 17.4402 29.1844 17.6216 29.8138 17.9842C30.4431 18.3469 30.9338 18.8589 31.2857 19.5202C31.6484 20.1709 31.8298 20.9336 31.8298 21.8082C31.8298 21.8722 31.8244 21.9469 31.8137 22.0322C31.8137 22.1176 31.8084 22.1976 31.7978 22.2722H24.5818V21.1682H30.9977L30.3738 21.5522C30.3844 21.0082 30.2724 20.5229 30.0378 20.0962C29.8031 19.6696 29.4778 19.3389 29.0618 19.1042C28.6564 18.8589 28.1818 18.7362 27.6378 18.7362C27.1044 18.7362 26.6298 18.8589 26.2138 19.1042C25.7978 19.3389 25.4724 19.6749 25.2378 20.1122C25.0031 20.5389 24.8857 21.0296 24.8857 21.5842V21.8402C24.8857 22.4056 25.0138 22.9122 25.2698 23.3602C25.5364 23.7976 25.9044 24.1389 26.3738 24.3842C26.8431 24.6296 27.3818 24.7522 27.9897 24.7522C28.4911 24.7522 28.9444 24.6669 29.3498 24.4962C29.7658 24.3256 30.1284 24.0696 30.4377 23.7282L31.2857 24.7202C30.9017 25.1682 30.4218 25.5096 29.8458 25.7442C29.2804 25.9789 28.6458 26.0962 27.9417 26.0962Z" fill="white"/>
<path d="M42.2186 14.8002H43.8186V26.0002H42.2186V14.8002ZM35.7866 26.0002H34.1866V14.8002H35.7866V26.0002ZM42.3626 21.0082H35.6266V19.6162H42.3626V21.0082Z" fill="white"/>
<path d="M50.579 26.0962C49.7257 26.0962 48.9683 25.9096 48.307 25.5362C47.6457 25.1629 47.123 24.6509 46.739 24.0002C46.355 23.3389 46.163 22.5922 46.163 21.7602C46.163 20.9176 46.355 20.1709 46.739 19.5202C47.123 18.8696 47.6457 18.3629 48.307 18.0002C48.9683 17.6269 49.7257 17.4402 50.579 17.4402C51.4217 17.4402 52.1737 17.6269 52.835 18.0002C53.507 18.3629 54.0297 18.8696 54.403 19.5202C54.787 20.1602 54.979 20.9069 54.979 21.7602C54.979 22.6029 54.787 23.3496 54.403 24.0002C54.0297 24.6509 53.507 25.1629 52.835 25.5362C52.1737 25.9096 51.4217 26.0962 50.579 26.0962ZM50.579 24.7522C51.123 24.7522 51.6083 24.6296 52.035 24.3842C52.4723 24.1389 52.8137 23.7922 53.059 23.3442C53.3043 22.8856 53.427 22.3576 53.427 21.7602C53.427 21.1522 53.3043 20.6296 53.059 20.1922C52.8137 19.7442 52.4723 19.3976 52.035 19.1522C51.6083 18.9069 51.123 18.7842 50.579 18.7842C50.035 18.7842 49.5497 18.9069 49.123 19.1522C48.6963 19.3976 48.355 19.7442 48.099 20.1922C47.843 20.6296 47.715 21.1522 47.715 21.7602C47.715 22.3576 47.843 22.8856 48.099 23.3442C48.355 23.7922 48.6963 24.1389 49.123 24.3842C49.5497 24.6296 50.035 24.7522 50.579 24.7522Z" fill="white"/>
<path d="M67.7113 17.4402C68.3939 17.4402 68.9966 17.5736 69.5192 17.8402C70.0419 18.1069 70.4473 18.5122 70.7353 19.0562C71.0339 19.6002 71.1833 20.2882 71.1833 21.1202V26.0002H69.6472V21.2962C69.6472 20.4749 69.4553 19.8562 69.0713 19.4402C68.6872 19.0242 68.1486 18.8162 67.4553 18.8162C66.9433 18.8162 66.4953 18.9229 66.1113 19.1362C65.7272 19.3496 65.4286 19.6642 65.2152 20.0802C65.0126 20.4962 64.9112 21.0136 64.9112 21.6322V26.0002H63.3753V21.2962C63.3753 20.4749 63.1833 19.8562 62.7993 19.4402C62.4259 19.0242 61.8872 18.8162 61.1833 18.8162C60.6819 18.8162 60.2393 18.9229 59.8553 19.1362C59.4713 19.3496 59.1726 19.6642 58.9593 20.0802C58.7459 20.4962 58.6393 21.0136 58.6393 21.6322V26.0002H57.1032V17.5202H58.5752V19.7762L58.3353 19.2002C58.6019 18.6456 59.0126 18.2136 59.5672 17.9042C60.1219 17.5949 60.7673 17.4402 61.5033 17.4402C62.3139 17.4402 63.0126 17.6429 63.5993 18.0482C64.1859 18.4429 64.5699 19.0456 64.7513 19.8562L64.1273 19.6002C64.3832 18.9496 64.8313 18.4269 65.4713 18.0322C66.1113 17.6376 66.8579 17.4402 67.7113 17.4402Z" fill="white"/>
<path d="M77.7855 26.0962C76.8788 26.0962 76.0788 25.9096 75.3855 25.5362C74.7028 25.1629 74.1695 24.6509 73.7855 24.0002C73.4122 23.3496 73.2255 22.6029 73.2255 21.7602C73.2255 20.9176 73.4068 20.1709 73.7695 19.5202C74.1428 18.8696 74.6495 18.3629 75.2895 18.0002C75.9402 17.6269 76.6708 17.4402 77.4815 17.4402C78.3028 17.4402 79.0282 17.6216 79.6575 17.9842C80.2868 18.3469 80.7775 18.8589 81.1295 19.5202C81.4922 20.1709 81.6735 20.9336 81.6735 21.8082C81.6735 21.8722 81.6682 21.9469 81.6575 22.0322C81.6575 22.1176 81.6522 22.1976 81.6415 22.2722H74.4255V21.1682H80.8415L80.2175 21.5522C80.2282 21.0082 80.1162 20.5229 79.8815 20.0962C79.6468 19.6696 79.3215 19.3389 78.9055 19.1042C78.5002 18.8589 78.0255 18.7362 77.4815 18.7362C76.9482 18.7362 76.4735 18.8589 76.0575 19.1042C75.6415 19.3389 75.3162 19.6749 75.0815 20.1122C74.8468 20.5389 74.7295 21.0296 74.7295 21.5842V21.8402C74.7295 22.4056 74.8575 22.9122 75.1135 23.3602C75.3802 23.7976 75.7482 24.1389 76.2175 24.3842C76.6868 24.6296 77.2255 24.7522 77.8335 24.7522C78.3348 24.7522 78.7882 24.6669 79.1935 24.4962C79.6095 24.3256 79.9722 24.0696 80.2815 23.7282L81.1295 24.7202C80.7455 25.1682 80.2655 25.5096 79.6895 25.7442C79.1242 25.9789 78.4895 26.0962 77.7855 26.0962Z" fill="white"/>
</g>
<path id="Subtract" d="M30.4834 1H89.4834C90.0357 1 90.4834 1.44772 90.4834 2V38C90.4834 38.5523 90.0357 39 89.4834 39H30.4834C29.9311 39 29.4834 38.5523 29.4834 38V28.8333C29.4834 28.5572 29.2595 28.3333 28.9834 28.3333C28.7073 28.3333 28.4834 28.5572 28.4834 28.8333V38C28.4834 39.1046 29.3788 40 30.4834 40H89.4834C90.588 40 91.4834 39.1046 91.4834 38V2C91.4834 0.895431 90.588 0 89.4834 0H30.4834C29.3788 0 28.4834 0.895431 28.4834 2V14.5C28.4834 14.7761 28.7073 15 28.9834 15C29.2595 15 29.4834 14.7761 29.4834 14.5V2C29.4834 1.44772 29.9311 1 30.4834 1Z" fill="white"/>
</g>
</svg>
