<?xml version="1.0" encoding="UTF-8"?>
<svg version="1.1" xmlns="http://www.w3.org/2000/svg" width="500" height="500">
<path d="M0 0 C90.42 0 180.84 0 274 0 C274 37.29 274 74.58 274 113 C183.58 113 93.16 113 0 113 C0 75.71 0 38.42 0 0 Z M4 4 C4 38.65 4 73.3 4 109 C91.78 109 179.56 109 270 109 C270 74.35 270 39.7 270 4 C182.22 4 94.44 4 4 4 Z " fill="#FF9A00" transform="translate(155,183)"/>
<path d="M0 0 C5.0811473 2.8184489 8.32464921 6.41549736 10 12 C10.30078125 15.33984375 10.30078125 15.33984375 10.3125 18.9375 C10.32925781 20.12214844 10.34601563 21.30679688 10.36328125 22.52734375 C9.69182055 28.94593047 6.70867934 32.77426213 2 37 C-0.7110077 38.35550385 -2.91339169 38.16917207 -5.9375 38.1875 C-7.52884766 38.20876953 -7.52884766 38.20876953 -9.15234375 38.23046875 C-12 38 -12 38 -15 36 C-15.33 40.95 -15.66 45.9 -16 51 C-18.97 51 -21.94 51 -25 51 C-25 34.5 -25 18 -25 1 C-21.33333333 1 -17.66666667 1 -14 1 C-9.72611848 -1.13694076 -4.61673036 -0.70982229 0 0 Z M-16 11 C-16.40738428 13.82772621 -16.56016044 16.18248606 -16.5 19 C-16.51546875 19.72445312 -16.5309375 20.44890625 -16.546875 21.1953125 C-16.52253241 24.49373312 -16.47909774 26.47267798 -14.21484375 28.96484375 C-10.79079371 30.56514933 -7.63465287 30.85648256 -4 30 C-0.60794204 27.31462079 0.64613939 25.79250704 1.4765625 21.5859375 C1.71995436 17.34579516 1.47048538 13.92107085 -1 10.375 C-3.94419411 8.04417967 -4.56140439 7.6011026 -8.0625 7.4375 C-12.70187384 8.05429251 -12.70187384 8.05429251 -16 11 Z " fill="#000000" transform="translate(186,223)"/>
<path d="M0 0 C4.8749824 2.74788334 7.35630063 5.97796729 9.4609375 11.11328125 C9.9559375 16.06328125 9.9559375 16.06328125 10.4609375 21.11328125 C0.5609375 21.11328125 -9.3390625 21.11328125 -19.5390625 21.11328125 C-16.40730564 26.88588424 -16.40730564 26.88588424 -13.5390625 28.11328125 C-7.20848196 28.65117371 -2.02732137 28.67323295 3.4609375 25.11328125 C4.7809375 26.76328125 6.1009375 28.41328125 7.4609375 30.11328125 C6.43476499 33.08918153 5.56459859 34.0493827 2.84375 35.7265625 C-1.02206332 37.31127812 -3.87303842 37.51368384 -8.0390625 37.48828125 C-9.3075 37.49601562 -10.5759375 37.50375 -11.8828125 37.51171875 C-17.45093763 36.90493588 -21.3174092 34.95714622 -24.8515625 30.61328125 C-25.34269531 30.02546875 -25.83382812 29.43765625 -26.33984375 28.83203125 C-29.71910841 23.98878548 -29.03151384 17.73721828 -28.5390625 12.11328125 C-27.32434986 7.37822306 -25.02949107 4.09115433 -21.1640625 1.11328125 C-14.85793916 -2.35862935 -6.71064005 -2.34356199 0 0 Z M-18.5390625 11.11328125 C-18.8690625 12.10328125 -19.1990625 13.09328125 -19.5390625 14.11328125 C-12.9390625 14.11328125 -6.3390625 14.11328125 0.4609375 14.11328125 C-2.03962843 9.13706382 -2.03962843 9.13706382 -5.5390625 7.11328125 C-11.36608534 6.54937581 -14.32917035 6.64824412 -18.5390625 11.11328125 Z " fill="#000000" transform="translate(273.5390625,223.88671875)"/>
<path d="M0 0 C25 0 25 0 31 3 C35.49736591 7.61571764 35.44147157 11.97659219 35.43359375 18.09765625 C34.80768745 22.28728132 33.16949163 24.97669483 30 27.75 C25.75199654 30.40500216 21.6359828 30.11684775 16.8125 30.0625 C14.234375 30.041875 11.65625 30.02125 9 30 C9 36.6 9 43.2 9 50 C6.03 50 3.06 50 0 50 C0 33.5 0 17 0 0 Z M9 7 C9 12.28 9 17.56 9 23 C18.29758113 23.33023204 18.29758113 23.33023204 26 19 C26.27912647 16.06917207 26.47226924 13.84527641 26 11 C23.4465729 8.06828741 20.78587645 7.43021323 17 7 C14.36 7 11.72 7 9 7 Z " fill="#000000" transform="translate(32,210)"/>
<path d="M0 0 C0.6909375 -0.020625 1.381875 -0.04125 2.09375 -0.0625 C7.19852042 -0.10088173 10.67946746 0.97669847 15.25 3.25 C14.75168276 6.93754757 14.14932357 8.85490662 11.25 11.25 C10.74984375 10.92257813 10.2496875 10.59515625 9.734375 10.2578125 C6.33207896 8.8776358 3.10649349 9.03637162 -0.5 9.125 C-1.54607422 9.13853516 -1.54607422 9.13853516 -2.61328125 9.15234375 C-4.32566958 9.17580112 -6.03788004 9.21166896 -7.75 9.25 C-7.42 10.24 -7.09 11.23 -6.75 12.25 C-3.05186317 13.20947575 0.60956301 13.90136987 4.37304688 14.53515625 C10.00561901 15.61285198 13.32748511 16.97202668 17.25 21.25 C18.24297927 24.66670288 17.91924622 27.77220766 17.25 31.25 C14.91333928 35.40406351 12.71617049 36.85051878 8.25 38.25 C5.47093584 38.49214743 2.83943409 38.62991112 0.0625 38.625 C-0.68765381 38.62628906 -1.43780762 38.62757813 -2.21069336 38.62890625 C-8.33145522 38.51283534 -13.34906593 37.22250425 -18.75 34.25 C-16.875 28.5 -16.875 28.5 -15.75 26.25 C-14.574375 26.745 -13.39875 27.24 -12.1875 27.75 C-5.53535265 30.02068491 1.31826931 29.49658331 8.25 29.25 C7.92 28.26 7.59 27.27 7.25 26.25 C3.76849287 25.25797793 0.32298284 24.55213143 -3.22851562 23.87695312 C-8.17099609 22.85244937 -11.74818138 21.51528759 -15.75 18.25 C-17.76536061 13.9774355 -17.98834919 12.0444973 -16.625 7.5 C-12.60111133 0.52525963 -7.57739002 0.05530942 0 0 Z " fill="#000000" transform="translate(306.75,222.75)"/>
<path d="M0 0 C3.74730361 2.11224417 6.91147685 4.90479893 8.83203125 8.83203125 C10.69459887 15.58817713 10.91884622 23.52510956 7.3984375 29.73828125 C4.65781621 33.26626335 1.82265068 35.91082265 -2.5390625 37.11328125 C-9.82708491 38.02428405 -16.93912246 38.36811703 -22.984375 33.7109375 C-27.50915532 29.06110044 -28.77958348 24.54349559 -29.0390625 18.11328125 C-28.77958348 11.68306691 -27.50915532 7.16546206 -22.984375 2.515625 C-16.56569379 -2.42923885 -7.47775977 -2.6114638 0 0 Z M-18.5390625 11.11328125 C-20.38768938 14.810535 -20.01493344 19.07789567 -19.5390625 23.11328125 C-17.74259396 26.0475132 -16.5949554 27.5853348 -13.5390625 29.11328125 C-7.72560303 29.64693638 -7.72560303 29.64693638 -2.6015625 27.23828125 C0.97842883 23.54980533 0.78976185 20.56007072 0.75390625 15.59765625 C0.34631623 12.14129291 -1.00182752 10.42664256 -3.5390625 8.11328125 C-9.25778358 5.25392071 -14.31676337 6.76303366 -18.5390625 11.11328125 Z " fill="#000000" transform="translate(144.5390625,223.88671875)"/>
<path d="M0 0 C2.97 0 5.94 0 9 0 C9 4.62 9 9.24 9 14 C13.95 14 18.9 14 24 14 C24 16.31 24 18.62 24 21 C19.05 21 14.1 21 9 21 C9.14014682 24.3128323 9.28683615 27.62514408 9.4375 30.9375 C9.47681641 31.88302734 9.51613281 32.82855469 9.55664062 33.80273438 C9.59853516 34.70185547 9.64042969 35.60097656 9.68359375 36.52734375 C9.72025146 37.35999756 9.75690918 38.19265137 9.79467773 39.05053711 C9.79367103 41.00338858 9.79367103 41.00338858 11 42 C14.41571853 42.50031206 14.41571853 42.50031206 18 42 C20.00864359 39.6273026 20.00864359 39.6273026 21 37 C23.64 37.33 26.28 37.66 29 38 C28.54713369 42.86831281 27.41678531 45.48559226 24 49 C19.10798212 52.06020502 13.5575877 51.84887436 8 51 C3.91167743 48.80339279 1.46940952 46.40822855 0 42 C-0.08143855 40.37280518 -0.1075302 38.74248281 -0.09765625 37.11328125 C-0.09443359 36.17548828 -0.09121094 35.23769531 -0.08789062 34.27148438 C-0.07951172 33.29501953 -0.07113281 32.31855469 -0.0625 31.3125 C-0.05798828 30.32443359 -0.05347656 29.33636719 -0.04882812 28.31835938 C-0.03704303 25.87884526 -0.02059011 23.43945311 0 21 C-2.64 21 -5.28 21 -8 21 C-8 18.69 -8 16.38 -8 14 C-5.36 14 -2.72 14 0 14 C0 9.38 0 4.76 0 0 Z " fill="#000000" transform="translate(340,210)"/>
<path d="M0 0 C0.66 0.66 1.32 1.32 2 2 C1.01 4.31 0.02 6.62 -1 9 C-2.21236328 8.93039063 -2.21236328 8.93039063 -3.44921875 8.859375 C-10.11917214 8.51296476 -10.11917214 8.51296476 -16.1875 10.875 C-19.35532847 14.58900579 -19.29793144 17.92348663 -19.5625 22.625 C-19.60568359 23.33140625 -19.64886719 24.0378125 -19.69335938 24.765625 C-19.79944751 26.51018537 -19.90022889 28.25506697 -20 30 C-17.36 30 -14.72 30 -12 30 C-12 32.31 -12 34.62 -12 37 C-20.25 37 -28.5 37 -37 37 C-37 34.69 -37 32.38 -37 30 C-34.36 30 -31.72 30 -29 30 C-29 22.41 -29 14.82 -29 7 C-31.64 7 -34.28 7 -37 7 C-37 5.02 -37 3.04 -37 1 C-31.39 1 -25.78 1 -20 1 C-19.67 1.99 -19.34 2.98 -19 4 C-17.9171875 3.01 -17.9171875 3.01 -16.8125 2 C-11.94571859 -1.30706592 -5.62053263 -0.66763233 0 0 Z " fill="#000000" transform="translate(111,223)"/>
<path d="M0 0 C2.97 0 5.94 0 9 0 C17 18.68774704 17 18.68774704 17 24 C17.66 24 18.32 24 19 24 C19.226875 22.80375 19.45375 21.6075 19.6875 20.375 C23.38140369 3.61859631 23.38140369 3.61859631 27 0 C28.51928038 -0.07179964 30.04167482 -0.08392007 31.5625 -0.0625 C32.38878906 -0.05347656 33.21507812 -0.04445312 34.06640625 -0.03515625 C34.70449219 -0.02355469 35.34257812 -0.01195312 36 0 C35.37362455 4.65574591 34.13163016 8.74940853 32.49609375 13.1484375 C32.2533522 13.80582916 32.01061066 14.46322083 31.76051331 15.14053345 C30.99116304 17.22057875 30.21446646 19.2977892 29.4375 21.375 C28.91161981 22.79278726 28.38622425 24.21075437 27.86132812 25.62890625 C26.5798165 29.08803517 25.2917059 32.54466292 24 36 C20.04 36 16.08 36 12 36 C10.28485254 31.35746988 8.57603173 26.71267928 6.87304688 22.06567383 C6.29275287 20.48495686 5.71073134 18.90487297 5.12695312 17.32543945 C4.28842089 15.05584072 3.45611592 12.78404208 2.625 10.51171875 C2.36251465 9.80536789 2.1000293 9.09901703 1.82958984 8.3712616 C0.76304997 5.43928285 0 3.14650219 0 0 Z " fill="#000000" transform="translate(203,224)"/>
</svg>
