<svg width="29" height="17" viewBox="0 0 29 17" fill="none" xmlns="http://www.w3.org/2000/svg">
<g clip-path="url(#clip0_569_6819)">
<path d="M10.9209 1.96045H18.2859V15.1941H10.9209V1.96045Z" fill="#FF5F00"/>
<path d="M11.3889 8.57733C11.3889 5.88851 12.6515 3.50365 14.5921 1.9605C13.1659 0.83821 11.3656 0.160156 9.40155 0.160156C4.74872 0.160156 0.984375 3.92451 0.984375 8.57733C0.984375 13.2302 4.74872 16.9945 9.40155 16.9945C11.3656 16.9945 13.1659 16.3165 14.5921 15.1942C12.6515 13.6744 11.3889 11.2662 11.3889 8.57733Z" fill="#EB001B"/>
<path d="M28.223 8.57733C28.223 13.2302 24.4587 16.9945 19.8058 16.9945C17.8418 16.9945 16.0415 16.3165 14.6152 15.1942C16.5792 13.651 17.8184 11.2662 17.8184 8.57733C17.8184 5.88851 16.5559 3.50365 14.6152 1.9605C16.0415 0.83821 17.8418 0.160156 19.8058 0.160156C24.4587 0.160156 28.223 3.94789 28.223 8.57733Z" fill="#F79E1B"/>
</g>
<defs>
<clipPath id="clip0_569_6819">
<rect width="27.2389" height="16.8344" fill="white" transform="translate(0.984375 0.159668)"/>
</clipPath>
</defs>
</svg>
