<svg width="53" height="18" viewBox="0 0 53 18" fill="none" xmlns="http://www.w3.org/2000/svg">
<path d="M34.319 0.185547C30.6335 0.185547 27.3399 2.09582 27.3399 5.62521C27.3399 9.67274 33.1811 9.9523 33.1811 11.9857C33.1811 12.8418 32.2 13.6082 30.5242 13.6082C28.1459 13.6082 26.3684 12.5373 26.3684 12.5373L25.6078 16.0989C25.6078 16.0989 27.6555 17.0035 30.3741 17.0035C34.4035 17.0035 37.5742 14.9994 37.5742 11.4097C37.5742 7.13271 31.7087 6.86145 31.7087 4.97415C31.7087 4.30347 32.5141 3.5686 34.1851 3.5686C36.0705 3.5686 37.6087 4.34743 37.6087 4.34743L38.3531 0.90759C38.3531 0.90759 36.6794 0.185547 34.319 0.185547ZM0.599983 0.445158L0.510742 0.96438C0.510742 0.96438 2.06125 1.24815 3.45773 1.8142C5.25582 2.46329 5.38391 2.84116 5.68673 4.01481L8.98663 16.7357H13.4102L20.2249 0.445158H15.8116L11.4327 11.5212L9.6458 2.13263C9.48193 1.05811 8.65187 0.445158 7.63584 0.445158H0.599983ZM21.9996 0.445158L18.5375 16.7357H22.746L26.196 0.445158H21.9996ZM45.4721 0.445158C44.4573 0.445158 43.9196 0.988479 43.525 1.93792L37.3593 16.7357H41.7726L42.6265 14.2694H48.0033L48.5225 16.7357H52.4167L49.0194 0.445158H45.4721ZM46.0461 4.84637L47.3543 10.9594H43.8495L46.0461 4.84637Z" fill="white"/>
</svg>
