<svg width="13" height="14" viewBox="0 0 13 14" fill="none" xmlns="http://www.w3.org/2000/svg">
<path fill-rule="evenodd" clip-rule="evenodd" d="M10.9231 4.81378C11.1984 4.83645 11.4037 5.07712 11.3817 5.35245C11.3777 5.39778 11.0164 9.87178 10.8084 11.7485C10.6791 12.9131 9.90973 13.6218 8.7484 13.6431C7.85973 13.6585 7.0024 13.6671 6.1644 13.6671C5.26107 13.6671 4.3804 13.6571 3.50907 13.6391C2.3944 13.6171 1.62307 12.8945 1.49707 11.7531C1.28707 9.85979 0.927733 5.39712 0.9244 5.35245C0.901733 5.07712 1.10707 4.83578 1.3824 4.81378C1.65373 4.80645 1.89907 4.99712 1.92107 5.27178C1.92319 5.30072 2.07009 7.12314 2.23017 8.92626L2.26233 9.28609C2.34295 10.1823 2.42468 11.0435 2.49107 11.6431C2.5624 12.2918 2.9124 12.6265 3.52973 12.6391C5.1964 12.6745 6.89707 12.6765 8.7304 12.6431C9.3864 12.6305 9.74107 12.3025 9.8144 11.6385C10.0211 9.77579 10.3811 5.31712 10.3851 5.27178C10.4071 4.99712 10.6504 4.80512 10.9231 4.81378ZM7.5636 0.333984C8.1756 0.333984 8.7136 0.746651 8.8716 1.33798L9.04093 2.17865C9.09565 2.45423 9.3375 2.65549 9.61752 2.65991L11.8053 2.65998C12.0813 2.65998 12.3053 2.88398 12.3053 3.15998C12.3053 3.43598 12.0813 3.65998 11.8053 3.65998L9.63706 3.65988C9.63369 3.65995 9.63031 3.65998 9.62693 3.65998L9.61067 3.65932L2.69441 3.6599C2.68904 3.65996 2.68365 3.65998 2.67827 3.65998L2.668 3.65932L0.5 3.65998C0.224 3.65998 0 3.43598 0 3.15998C0 2.88398 0.224 2.65998 0.5 2.65998L2.68733 2.65932L2.75468 2.65505C3.00554 2.62251 3.21402 2.43198 3.26493 2.17865L3.42693 1.36798C3.5916 0.746651 4.1296 0.333984 4.7416 0.333984H7.5636ZM7.5636 1.33398H4.7416C4.5816 1.33398 4.44093 1.44132 4.40027 1.59532L4.24493 2.37532C4.22519 2.47412 4.19644 2.56933 4.15966 2.66016H8.14574C8.10891 2.56933 8.0801 2.47412 8.06027 2.37532L7.89827 1.56465C7.86427 1.44132 7.7236 1.33398 7.5636 1.33398Z" fill="#1A374D"/>
</svg>
