<svg width="22" height="22" viewBox="0 0 22 22" fill="none" xmlns="http://www.w3.org/2000/svg">
<path d="M17.2215 11.8882C16.9696 11.8882 16.7584 11.8028 16.5877 11.6322C16.417 11.4615 16.332 11.2506 16.3326 10.9993C16.3326 10.7474 16.4179 10.5362 16.5886 10.3655C16.7592 10.1948 16.9702 10.1098 17.2215 10.1104H18.9992C19.2511 10.1104 19.4624 10.1957 19.633 10.3664C19.8037 10.5371 19.8887 10.748 19.8881 10.9993C19.8881 11.2511 19.8028 11.4624 19.6321 11.6331C19.4615 11.8037 19.2505 11.8888 18.9992 11.8882H17.2215ZM16.6881 17.5771L15.2659 16.5104C15.0585 16.3623 14.94 16.1697 14.9104 15.9326C14.8807 15.6956 14.94 15.4734 15.0881 15.266C15.2363 15.0585 15.4289 14.94 15.6659 14.9104C15.9029 14.8808 16.1252 14.94 16.3326 15.0882L17.7548 16.1548C17.9622 16.303 18.0807 16.4956 18.1104 16.7326C18.14 16.9697 18.0807 17.1919 17.9326 17.3993C17.7844 17.6067 17.5918 17.7252 17.3548 17.7548C17.1178 17.7845 16.8955 17.7252 16.6881 17.5771ZM16.3326 6.9104C16.1252 7.05855 15.9029 7.11781 15.6659 7.08818C15.4289 7.05855 15.2363 6.94003 15.0881 6.73262C14.94 6.52522 14.8807 6.30299 14.9104 6.06596C14.94 5.82892 15.0585 5.63633 15.2659 5.48818L16.6881 4.42151C16.8955 4.27337 17.1178 4.21411 17.3548 4.24374C17.5918 4.27337 17.7844 4.39188 17.9326 4.59929C18.0807 4.8067 18.14 5.02892 18.1104 5.26596C18.0807 5.50299 17.9622 5.69559 17.7548 5.84374L16.3326 6.9104ZM4.77702 17.2215V13.666H3.88813C3.39924 13.666 2.98058 13.4917 2.63213 13.1433C2.28369 12.7948 2.10976 12.3765 2.11035 11.8882V10.1104C2.11035 9.62151 2.28458 9.20285 2.63302 8.8544C2.98146 8.50596 3.39983 8.33203 3.88813 8.33262H7.44369L10.5326 6.46596C10.8289 6.28818 11.1287 6.28818 11.4321 6.46596C11.7355 6.64374 11.8875 6.90299 11.8881 7.24374V14.7548C11.8881 15.0956 11.7361 15.3548 11.4321 15.5326C11.1281 15.7104 10.8283 15.7104 10.5326 15.5326L7.44369 13.666H6.5548V17.2215H4.77702ZM12.777 13.9771V8.02151C13.177 8.37707 13.4994 8.81055 13.7441 9.32196C13.9889 9.83336 14.1109 10.3925 14.1104 10.9993C14.1104 11.6067 13.988 12.1661 13.7432 12.6775C13.4985 13.1889 13.1764 13.6221 12.777 13.9771Z" fill="#FF6100"/>
</svg>
