<svg width="48" height="48" viewBox="0 0 48 48" fill="none" xmlns="http://www.w3.org/2000/svg">
<g id="Icons">
<path id="Vector" d="M20.0025 26.505C21.1085 26.505 22.005 25.6084 22.005 24.5025C22.005 23.3965 21.1085 22.5 20.0025 22.5C18.8965 22.5 18 23.3965 18 24.5025C18 25.6084 18.8965 26.505 20.0025 26.505Z" stroke="#1e0700" stroke-width="2"/>
<path id="Vector_2" d="M27.9976 34.5001C29.1036 34.5001 30.0001 33.6036 30.0001 32.4976C30.0001 31.3917 29.1036 30.4951 27.9976 30.4951C26.8917 30.4951 25.9951 31.3917 25.9951 32.4976C25.9951 33.6036 26.8917 34.5001 27.9976 34.5001Z" stroke="#1e0700" stroke-width="2"/>
<path id="Vector_3" d="M27.9974 22.5L20.0024 34.5" stroke="#1e0700" stroke-width="2"/>
<path id="Vector_4" d="M42 18H6V39H42V18Z" stroke="#1e0700" stroke-width="2"/>
<path id="Vector_5" d="M9 13.5H39" stroke="#1e0700" stroke-width="2"/>
<path id="Vector_6" d="M12 9H36" stroke="#1e0700" stroke-width="2"/>
</g>
</svg>
