<svg width="44" height="40" viewBox="0 0 44 40" fill="none" xmlns="http://www.w3.org/2000/svg">
<path id="Vector" fill-rule="evenodd" clipRule="evenodd" d="M41.063 17.1714L39.5 15.921V36.5H42C42.8284 36.5 43.5 37.1716 43.5 38C43.5 38.8286 42.8284 39.5 42 39.5H2.00006C1.17162 39.5 0.500057 38.8286 0.500057 38C0.500057 37.1716 1.17162 36.5 2.00006 36.5H4.50006V15.921L2.9371 17.1714C2.2902 17.689 1.34626 17.584 0.828757 16.9372C0.311237 16.2902 0.416117 15.3462 1.06302 14.8288L17.3148 1.82733C20.054 -0.363992 23.9462 -0.363992 26.6852 1.82733L42.937 14.8288C43.584 15.3462 43.6888 16.2902 43.1714 16.9372C42.6538 17.584 41.71 17.689 41.063 17.1714ZM22 7.50009C18.9624 7.50009 16.5001 9.96253 16.5001 13.0001C16.5001 16.0376 18.9624 18.5 22 18.5C25.0376 18.5 27.5 16.0376 27.5 13.0001C27.5 9.96253 25.0376 7.50009 22 7.50009ZM25.4918 20.6232C24.5742 20.5 23.4286 20.5 22.0988 20.5H21.9014C20.5716 20.5 19.4258 20.5 18.5084 20.6232C17.5251 20.7554 16.5826 21.0536 15.8181 21.8182C15.0536 22.5826 14.7555 23.5252 14.6233 24.5084C14.4999 25.4258 14.5 26.5716 14.5001 27.9014V36.5H17.5001H26.5H29.5V27.9014V27.6542C29.4996 26.4292 29.4924 25.3686 29.3768 24.5084C29.2446 23.5252 28.9466 22.5826 28.182 21.8182C27.4176 21.0536 26.475 20.7554 25.4918 20.6232Z" fill="#1e0700"/>
</svg>
