<svg width="48" height="48" viewBox="0 0 48 48" fill="none" xmlns="http://www.w3.org/2000/svg">
<path d="M9 40.5C8.60379 40.4948 8.22526 40.3351 7.94507 40.0549C7.66488 39.7747 7.50518 39.3962 7.5 39V9C7.5 8.60218 7.65804 8.22064 7.93934 7.93934C8.22064 7.65804 8.60218 7.5 9 7.5C9.39782 7.5 9.77936 7.65804 10.0607 7.93934C10.342 8.22064 10.5 8.60218 10.5 9V39C10.4948 39.3962 10.3351 39.7747 10.0549 40.0549C9.77474 40.3351 9.39621 40.4948 9 40.5Z" fill="#162F43"/>
<path d="M39 40.4999H9C8.60218 40.4999 8.22064 40.3419 7.93934 40.0606C7.65804 39.7793 7.5 39.3978 7.5 38.9999C7.5 38.6021 7.65804 38.2206 7.93934 37.9393C8.22064 37.658 8.60218 37.4999 9 37.4999H39C39.3978 37.4999 39.7794 37.658 40.0607 37.9393C40.342 38.2206 40.5 38.6021 40.5 38.9999C40.5 39.3978 40.342 39.7793 40.0607 40.0606C39.7794 40.3419 39.3978 40.4999 39 40.4999ZM28 29.4999C27.8029 29.5009 27.6076 29.4624 27.4256 29.3869C27.2436 29.3113 27.0785 29.2002 26.94 29.0599L22 24.1199L17.06 29.0599C16.7757 29.3249 16.3996 29.4691 16.011 29.4623C15.6224 29.4554 15.2516 29.298 14.9768 29.0232C14.7019 28.7484 14.5445 28.3776 14.5377 27.989C14.5308 27.6004 14.675 27.2243 14.94 26.9399L20.94 20.9399C21.2213 20.659 21.6025 20.5013 22 20.5013C22.3975 20.5013 22.7787 20.659 23.06 20.9399L28 25.8799L34.94 18.9399C35.2243 18.675 35.6004 18.5307 35.989 18.5376C36.3776 18.5444 36.7484 18.7019 37.0232 18.9767C37.2981 19.2515 37.4555 19.6223 37.4623 20.0109C37.4692 20.3995 37.325 20.7756 37.06 21.0599L29.06 29.0599C28.9215 29.2002 28.7564 29.3113 28.5744 29.3869C28.3924 29.4624 28.1971 29.5009 28 29.4999Z" fill="#162F43"/>
<path d="M37 27.68C36.6038 27.6748 36.2253 27.5151 35.9451 27.2349C35.6649 26.9547 35.5052 26.5762 35.5 26.18V20.5H30C29.6022 20.5 29.2206 20.342 28.9393 20.0607C28.658 19.7794 28.5 19.3978 28.5 19C28.5 18.6022 28.658 18.2206 28.9393 17.9393C29.2206 17.658 29.6022 17.5 30 17.5H37C37.3962 17.5052 37.7747 17.6649 38.0549 17.9451C38.3351 18.2253 38.4948 18.6038 38.5 19V26.18C38.4948 26.5762 38.3351 26.9547 38.0549 27.2349C37.7747 27.5151 37.3962 27.6748 37 27.68Z" fill="#162F43"/>
</svg>
