<svg width="48" height="48" viewBox="0 0 48 48" fill="none" xmlns="http://www.w3.org/2000/svg">
<g id="Name=Loan, Style=Thin">
<path id="Vector" fill-rule="evenodd" clip-rule="evenodd" d="M28.65 7.50001H19.35C19.0551 8.94091 18.3435 10.2635 17.3035 11.3035C16.2635 12.3435 14.9409 13.0551 13.5 13.35C13.4995 13.7833 13.4995 14.2167 13.5 14.65C14.9409 14.9449 16.2635 15.6566 17.3035 16.6966C18.3435 17.7366 19.0551 19.0591 19.35 20.5H28.65C28.945 19.0591 29.6566 17.7366 30.6966 16.6966C31.7366 15.6566 33.0591 14.9449 34.5 14.65C34.5005 14.2167 34.5005 13.7833 34.5 13.35C33.0591 13.0551 31.7366 12.3435 30.6966 11.3035C29.6566 10.2635 28.945 8.94091 28.65 7.50001ZM29.86 4.50601C29.31 4.50001 28.726 4.50001 28.104 4.50001H19.896C19.276 4.50001 18.69 4.50001 18.142 4.50601C18.0328 4.49617 17.9228 4.49818 17.814 4.51201C16.91 4.52801 16.108 4.56601 15.412 4.66001C14.156 4.82801 13.022 5.20001 12.112 6.11001C11.2 7.02201 10.828 8.15601 10.66 9.41001C10.566 10.108 10.528 10.91 10.512 11.814C10.4983 11.9221 10.4963 12.0314 10.506 12.14C10.5 12.69 10.5 13.276 10.5 13.896V14.104C10.5 14.724 10.5 15.31 10.506 15.86C10.4964 15.9686 10.4984 16.0779 10.512 16.186C10.528 17.092 10.566 17.892 10.66 18.588C10.828 19.844 11.2 20.978 12.112 21.888C13.022 22.8 14.156 23.172 15.412 23.34C16.108 23.434 16.91 23.472 17.814 23.488C17.9228 23.502 18.0328 23.5041 18.142 23.494C18.69 23.5 19.276 23.5 19.896 23.5H28.104C28.724 23.5 29.31 23.5 29.86 23.494C29.9686 23.5039 30.0779 23.5019 30.186 23.488C31.092 23.472 31.894 23.434 32.588 23.34C33.844 23.172 34.978 22.8 35.888 21.888C36.8 20.978 37.172 19.844 37.34 18.588C37.4348 17.7908 37.4842 16.9888 37.488 16.186C37.5016 16.0779 37.5036 15.9686 37.494 15.86C37.5 15.31 37.5 14.724 37.5 14.104V13.896C37.5 13.276 37.5 12.69 37.494 12.14C37.504 12.0314 37.5019 11.9221 37.488 11.814C37.4839 11.0112 37.4345 10.2093 37.34 9.41201C37.172 8.15601 36.8 7.02201 35.89 6.11201C34.978 5.20001 33.844 4.82801 32.59 4.66001C31.7921 4.56546 30.9895 4.51604 30.186 4.51201C30.0779 4.49826 29.9686 4.49625 29.86 4.50601ZM31.788 7.58801C32.0145 8.18636 32.3656 8.72973 32.8179 9.18212C33.2703 9.6345 33.8137 9.98556 34.412 10.212C34.3995 10.0784 34.3841 9.94501 34.366 9.81201C34.244 8.88801 34.028 8.49201 33.766 8.23201C33.506 7.97201 33.112 7.75801 32.19 7.63201C32.057 7.61464 31.9237 7.59997 31.79 7.58801H31.788ZM34.412 17.788C33.8137 18.0145 33.2703 18.3655 32.8179 18.8179C32.3656 19.2703 32.0145 19.8137 31.788 20.412C31.928 20.4 32.062 20.384 32.188 20.368C33.112 20.242 33.508 20.028 33.768 19.768C34.028 19.508 34.244 19.112 34.368 18.188C34.384 18.062 34.4 17.928 34.412 17.788ZM16.212 20.412C15.9856 19.8137 15.6345 19.2703 15.1822 18.8179C14.7298 18.3655 14.1864 18.0145 13.588 17.788C13.602 17.928 13.616 18.062 13.634 18.188C13.758 19.112 13.972 19.508 14.234 19.768C14.494 20.028 14.888 20.242 15.81 20.368C15.938 20.384 16.072 20.4 16.212 20.412ZM13.588 10.212C14.1864 9.98556 14.7298 9.6345 15.1822 9.18212C15.6345 8.72973 15.9856 8.18636 16.212 7.58801C16.072 7.60001 15.938 7.61601 15.812 7.63401C14.888 7.75801 14.492 7.97201 14.232 8.23401C13.972 8.49401 13.758 8.88801 13.632 9.81001L13.588 10.212ZM24 13.5C23.8674 13.5 23.7403 13.5527 23.6465 13.6465C23.5527 13.7402 23.5 13.8674 23.5 14C23.5 14.1326 23.5527 14.2598 23.6465 14.3536C23.7403 14.4473 23.8674 14.5 24 14.5C24.1327 14.5 24.2598 14.4473 24.3536 14.3536C24.4474 14.2598 24.5 14.1326 24.5 14C24.5 13.8674 24.4474 13.7402 24.3536 13.6465C24.2598 13.5527 24.1327 13.5 24 13.5ZM20.5 14C20.5 13.0717 20.8688 12.1815 21.5252 11.5251C22.1815 10.8688 23.0718 10.5 24 10.5C24.9283 10.5 25.8185 10.8688 26.4749 11.5251C27.1313 12.1815 27.5 13.0717 27.5 14C27.5 14.9283 27.1313 15.8185 26.4749 16.4749C25.8185 17.1313 24.9283 17.5 24 17.5C23.0718 17.5 22.1815 17.1313 21.5252 16.4749C20.8688 15.8185 20.5 14.9283 20.5 14ZM17.368 28.896C21.1 28.174 25.094 28.336 28.328 30.264C28.78 30.534 29.208 30.872 29.578 31.288C30.33 32.134 30.718 33.182 30.736 34.234C31.118 33.988 31.502 33.714 31.89 33.42L35.506 30.69C36.4114 30.0247 37.5055 29.6659 38.629 29.6659C39.7526 29.6659 40.8467 30.0247 41.752 30.69C43.424 31.95 44.092 34.216 42.894 36.136C42.044 37.498 40.762 39.384 39.46 40.592C38.14 41.812 36.266 42.84 34.848 43.524C33.124 44.356 31.264 44.816 29.454 45.108C25.754 45.708 21.906 45.616 18.25 44.862C16.3647 44.474 14.4449 44.2777 12.52 44.276H8.00005C7.60222 44.276 7.22069 44.118 6.93938 43.8367C6.65808 43.5554 6.50005 43.1738 6.50005 42.776C6.50005 42.3782 6.65808 41.9967 6.93938 41.7153C7.22069 41.434 7.60222 41.276 8.00005 41.276H12.52C14.644 41.276 16.79 41.498 18.856 41.924C22.1884 42.6078 25.6169 42.683 28.976 42.146C30.632 41.878 32.18 41.48 33.544 40.822C34.91 40.162 36.446 39.294 37.42 38.392C38.406 37.478 39.508 35.896 40.35 34.548C40.604 34.14 40.568 33.554 39.946 33.084C39.206 32.524 38.052 32.524 37.314 33.084L33.7 35.814C32.256 36.904 30.48 38.07 28.278 38.422C28.0474 38.4586 27.816 38.4906 27.584 38.518C26.1827 38.6797 24.7682 38.6931 23.364 38.558C23.1644 38.5442 22.9696 38.4906 22.791 38.4004C22.6125 38.3102 22.4537 38.1852 22.3242 38.0327C22.1947 37.8802 22.097 37.7033 22.0368 37.5125C21.9767 37.3217 21.9553 37.1207 21.974 36.9215C21.9927 36.7223 22.051 36.5289 22.1456 36.3526C22.2402 36.1763 22.3691 36.0206 22.5247 35.8949C22.6803 35.7691 22.8595 35.6758 23.0517 35.6203C23.244 35.5649 23.4454 35.5485 23.644 35.572C24.7535 35.6798 25.871 35.6778 26.98 35.566L27.04 35.56C27.2266 35.4442 27.3852 35.2884 27.5043 35.1039C27.6234 34.9194 27.7001 34.7108 27.7288 34.493C27.7575 34.2753 27.7375 34.0539 27.6703 33.8448C27.6031 33.6358 27.4903 33.4442 27.34 33.284C27.1807 33.1086 26.9952 32.9588 26.79 32.84C24.428 31.43 21.272 31.196 17.938 31.84C14.6815 32.4951 11.5944 33.8124 8.86805 35.71C8.70731 35.824 8.52569 35.9052 8.33357 35.949C8.14144 35.9928 7.94258 35.9983 7.74832 35.9653C7.55406 35.9322 7.36821 35.8612 7.20139 35.7563C7.03456 35.6515 6.89003 35.5147 6.77605 35.354C6.66206 35.1933 6.58085 35.0117 6.53705 34.8195C6.49325 34.6274 6.48772 34.4285 6.52078 34.2343C6.55384 34.04 6.62483 33.8542 6.72971 33.6873C6.83459 33.5205 6.97131 33.376 7.13205 33.262C10.2073 31.118 13.692 29.6316 17.368 28.896Z" fill="#1e0700"/>
</g>
</svg>
