<svg width="18" height="16" viewBox="0 0 18 16" fill="none" xmlns="http://www.w3.org/2000/svg">
<path d="M14.9756 1.09495C15.2196 0.857023 15.6017 0.857023 15.8375 1.09495C16.0815 1.33287 16.0815 1.72667 15.8375 1.9646L14.3577 3.45777C15.5367 4.54073 16.5368 6.00108 17.2849 7.75679C17.3499 7.91267 17.3499 8.09316 17.2849 8.24084C15.5448 12.3265 12.4468 14.7714 8.99923 14.7714H8.9911C7.42178 14.7714 5.91752 14.2545 4.59214 13.3111L3.0147 14.9027C2.89273 15.0257 2.73824 15.0832 2.58375 15.0832C2.42926 15.0832 2.26663 15.0257 2.1528 14.9027C1.94952 14.6976 1.91699 14.3694 2.07962 14.1315L2.10401 14.0987L14.13 1.9646C14.1462 1.94819 14.1625 1.93178 14.1706 1.91537C14.1869 1.89896 14.2032 1.88255 14.2113 1.86614L14.9756 1.09495ZM9.00142 1.23762C10.1642 1.23762 11.2944 1.51656 12.3352 2.04163L9.61939 4.78185C9.42424 4.74903 9.21283 4.72442 9.00142 4.72442C7.20444 4.72442 5.74896 6.19298 5.74896 8.00611C5.74896 8.21942 5.77336 8.43273 5.80588 8.62964L2.79735 11.6652C1.98424 10.7135 1.27683 9.56492 0.715779 8.24404C0.65073 8.09636 0.65073 7.91587 0.715779 7.75999C2.45585 3.67428 5.55381 1.23762 8.99329 1.23762H9.00142ZM11.6825 6.15696L10.7962 7.05122C10.9426 7.33017 11.0239 7.65834 11.0239 8.00291C11.0239 9.12689 10.1132 10.0458 8.99923 10.0458C8.65772 10.0458 8.33247 9.96373 8.05601 9.81605L7.16972 10.7103C7.69011 11.0631 8.32434 11.2764 8.99923 11.2764C10.7881 11.2764 12.2436 9.80785 12.2436 8.00291C12.2436 7.32196 12.0321 6.68203 11.6825 6.15696Z" fill="#1A374D"/>
</svg>
