<svg width="18" height="14" viewBox="0 0 18 14" fill="none" xmlns="http://www.w3.org/2000/svg">
<path d="M9.00033 0.333496C10.7239 0.333496 12.358 0.931476 13.7808 2.03855C15.2036 3.13754 16.415 4.74562 17.2849 6.75774C17.3499 6.91127 17.3499 7.08905 17.2849 7.23451C15.545 11.2587 12.4475 13.6668 9.00033 13.6668H8.9922C5.55317 13.6668 2.45561 11.2587 0.715773 7.23451C0.650732 7.08905 0.650732 6.91127 0.715773 6.75774C2.45561 2.7335 5.55317 0.333496 8.9922 0.333496H9.00033ZM9.00033 3.76784C7.20358 3.76784 5.74829 5.2143 5.74829 7.00016C5.74829 8.77794 7.20358 10.2244 9.00033 10.2244C10.7889 10.2244 12.2442 8.77794 12.2442 7.00016C12.2442 5.2143 10.7889 3.76784 9.00033 3.76784ZM9.0013 4.97818C10.1151 4.97818 11.0257 5.88323 11.0257 6.99838C11.0257 8.10546 10.1151 9.01051 9.0013 9.01051C7.87935 9.01051 6.96878 8.10546 6.96878 6.99838C6.96878 6.86101 6.98504 6.73172 7.00943 6.60243H7.05008C7.95252 6.60243 8.68423 5.89131 8.71675 5.00243C8.80618 4.98626 8.90374 4.97818 9.0013 4.97818Z" fill="#1A374D"/>
</svg>
