<svg width="16" height="16" viewBox="0 0 16 16" fill="none" xmlns="http://www.w3.org/2000/svg">
<path fill-rule="evenodd" clip-rule="evenodd" d="M13.3415 4.23065L11.7767 2.66585L11.0241 3.41433L13.0514 5.44164L12.5801 5.91299L10.08 3.41305L11.3067 2.19305C11.5667 1.93305 12 1.93305 12.2467 2.19305L13.8067 3.75305C14.0667 3.99971 14.0667 4.43305 13.8067 4.69305L13.3382 4.22463C13.3403 4.22825 13.3435 4.23256 13.3478 4.23669L13.3415 4.23065ZM2 13.9997V11.4997L9.37333 4.11971L11.8733 6.61971L4.5 13.9997H2ZM4.22368 13.333L10.9307 6.61993L9.37355 5.06274L2.66667 11.7757V13.333H4.22368Z" fill="#1A374D"/>
</svg>
