<svg width="18" height="18" viewBox="0 0 18 18" fill="none" xmlns="http://www.w3.org/2000/svg">
<path fill-rule="evenodd" clip-rule="evenodd" d="M12.2265 1.5C13.4325 1.5 14.4728 1.90275 15.234 2.6655C16.0298 3.462 16.4662 4.62075 16.4648 5.92875L16.4658 11.1761C16.4672 11.1962 16.4674 11.2165 16.4665 11.2367L16.4648 12.0375C16.4648 14.6857 14.76 16.4655 12.2228 16.4655H5.73825C3.20325 16.4655 1.5 14.6857 1.5 12.0375V5.928C1.5 3.27975 3.20325 1.5 5.73825 1.5H12.2265ZM12.434 9.62423C11.993 9.62423 11.4755 10.354 11.0172 10.9982C10.3887 11.8832 9.73845 12.799 8.75895 12.799C8.0967 12.799 7.48995 12.544 6.9552 12.3182C6.1047 11.9597 5.7192 11.845 5.34195 12.1555C4.58677 12.7778 3.84059 13.911 3.49772 14.4686C4.03888 15.0265 4.80762 15.3405 5.73825 15.3405H12.2228C14.1165 15.3405 15.3398 14.0445 15.3398 12.0375L15.3397 11.4383L15.3225 11.42C14.6659 10.7436 13.5322 9.62423 12.434 9.62423ZM12.2265 2.625H5.73825C3.8475 2.625 2.625 3.92175 2.625 5.928V12.0375C2.625 12.5389 2.70131 12.996 2.84529 13.3995C3.27931 12.7443 3.93479 11.857 4.6272 11.287C5.5662 10.5145 6.5772 10.939 7.3917 11.2817C7.87095 11.4835 8.32395 11.674 8.75895 11.674C9.15795 11.674 9.6582 10.969 10.1007 10.3472C10.715 9.48022 11.4125 8.49923 12.434 8.49923C13.555 8.49923 14.5704 9.18815 15.3406 9.87183L15.3398 5.928C15.3412 4.90575 15.0292 4.05225 14.4382 3.4605C13.8922 2.91375 13.128 2.625 12.2265 2.625ZM6.64275 4.64212C7.716 4.64287 8.589 5.51588 8.58975 6.58838V6.58913C8.58975 7.66238 7.71675 8.53537 6.64275 8.53537C5.56875 8.53537 4.69575 7.66238 4.69575 6.58913C4.69575 5.51512 5.56875 4.64212 6.64275 4.64212ZM6.642 5.76713C6.189 5.76713 5.82075 6.13538 5.82075 6.58913C5.82075 7.04213 6.189 7.41037 6.64275 7.41037C7.09575 7.41037 7.46475 7.04213 7.46475 6.58988C7.464 6.13613 7.095 5.76787 6.642 5.76713Z" fill="#1A374D"/>
</svg>
