<svg width="48" height="48" viewBox="0 0 48 48" fill="none" xmlns="http://www.w3.org/2000/svg">
<g id="Icons">
<path id="Vector" d="M41.919 23.1657C41.973 23.6847 42 24.2277 42 24.8007C42 28.6917 40.644 31.3077 39.33 32.9457C38.7995 33.6108 38.1923 34.211 37.521 34.7337C37.2941 34.9085 37.0577 35.0708 36.813 35.2197L36.786 35.2347C36.5482 35.3634 36.3495 35.5541 36.2112 35.7864C36.0728 36.0188 35.9999 36.2842 36 36.5547V40.4997C36 40.8975 35.842 41.279 35.5607 41.5604C35.2794 41.8417 34.8978 41.9997 34.5 41.9997H33C33 41.204 32.6839 40.441 32.1213 39.8784C31.5587 39.3158 30.7956 38.9997 30 38.9997H24C23.2044 38.9997 22.4413 39.3158 21.8787 39.8784C21.3161 40.441 21 41.204 21 41.9997H19.5C19.1022 41.9997 18.7206 41.8417 18.4393 41.5604C18.158 41.279 18 40.8975 18 40.4997V38.6907C18.0004 38.3186 17.8624 37.9596 17.6129 37.6835C17.3635 37.4074 17.0203 37.2339 16.65 37.1967C16.1747 37.0935 15.709 36.95 15.258 36.7677C14.0618 36.285 12.9766 35.5633 12.069 34.6467C10.74 33.2967 9.927 31.5207 9.489 30.2877C9.06 29.0607 8.076 27.9507 6.669 27.5547C6.47646 27.4999 6.30701 27.3839 6.1863 27.2242C6.06558 27.0645 6.00019 26.8699 6 26.6697V24.2877C5.99984 24.0987 6.06123 23.9148 6.1749 23.7637C6.28857 23.6127 6.44832 23.5028 6.63 23.4507C8.085 23.0337 9.057 21.8577 9.468 20.6157C9.804 19.5957 10.398 18.2877 11.364 17.3067C12.4707 16.2019 13.7493 15.2839 15.15 14.5887C15.267 14.5287 15.36 14.4867 15.42 14.4597L15.48 14.4297L15.492 14.4267C15.762 14.3109 15.9921 14.1185 16.1537 13.8731C16.3153 13.6278 16.4013 13.3405 16.401 13.0467V8.02469C17.0683 8.59383 17.7696 9.12181 18.501 9.60569C19.452 10.2297 20.562 10.8207 21.723 11.1357C22.065 10.1517 22.533 9.21569 23.115 8.35169H23.097C22.26 8.26469 21.237 7.81169 20.142 7.09469C19.1385 6.42005 18.1951 5.66024 17.322 4.82369C16.9957 4.51768 16.588 4.31242 16.1479 4.23259C15.7078 4.15276 15.254 4.20176 14.841 4.37369C14.4174 4.54155 14.0539 4.83246 13.7972 5.20891C13.5405 5.58536 13.4025 6.03007 13.401 6.48569V12.1167C11.8714 12.9412 10.4673 13.9796 9.231 15.2007C7.8 16.6467 7.023 18.4527 6.621 19.6737C6.453 20.1747 6.117 20.4777 5.805 20.5647C4.99689 20.796 4.28606 21.2841 3.77999 21.9553C3.27392 22.6264 3.00012 23.4441 3 24.2847V26.6697C3 28.4247 4.167 29.9637 5.853 30.4407C6.04486 30.5075 6.21822 30.6187 6.35898 30.7652C6.49973 30.9117 6.6039 31.0893 6.663 31.2837C7.161 32.6997 8.157 34.9527 9.933 36.7527C11.3469 38.1819 13.0852 39.2481 15 39.8607V40.4997C15 41.6932 15.4741 42.8378 16.318 43.6817C17.1619 44.5256 18.3065 44.9997 19.5 44.9997H21C21.7956 44.9997 22.5587 44.6836 23.1213 44.121C23.6839 43.5584 24 42.7953 24 41.9997H30C30 42.7953 30.3161 43.5584 30.8787 44.121C31.4413 44.6836 32.2044 44.9997 33 44.9997H34.5C35.6935 44.9997 36.8381 44.5256 37.682 43.6817C38.5259 42.8378 39 41.6932 39 40.4997V37.3707C40 36.6438 40.898 35.7862 41.67 34.8207C43.356 32.7207 45 29.4567 45 24.8007C45 22.8507 44.724 21.1047 44.19 19.5447C43.6552 20.8776 42.8861 22.1039 41.919 23.1657ZM41.373 11.6247C42.1229 13.4344 42.2621 15.4394 41.7694 17.3354C41.2767 19.2314 40.1791 20.915 38.643 22.1307C37.392 23.1177 35.679 23.0427 34.209 22.4307L27.039 19.4637C25.569 18.8547 24.303 17.6967 24.117 16.1157C23.8679 13.9593 24.4063 11.7855 25.633 9.99469C26.8598 8.20384 28.6922 6.91652 30.793 6.36978C32.8937 5.82305 35.1212 6.05373 37.0654 7.01934C39.0095 7.98495 40.5393 9.62046 41.373 11.6247ZM36.783 19.7757C37.6041 19.1269 38.2413 18.2746 38.6314 17.3036C39.0216 16.3325 39.1511 15.2763 39.0071 14.2397C38.8631 13.2032 38.4506 12.2223 37.8106 11.3943C37.1705 10.5663 36.3252 9.92007 35.3583 9.51961C34.3914 9.11914 33.3367 8.9784 32.2986 9.11133C31.2606 9.24426 30.2754 9.64625 29.4406 10.2774C28.6059 10.9086 27.9506 11.747 27.5399 12.7096C27.1291 13.6721 26.9771 14.7253 27.099 15.7647C27.105 15.8247 27.129 15.9357 27.297 16.1127C27.5512 16.3647 27.8544 16.5618 28.188 16.6917L35.358 19.6617C35.6855 19.8079 36.0404 19.8826 36.399 19.8807C36.639 19.8747 36.738 19.8117 36.783 19.7757ZM17.25 22.4997C17.8467 22.4997 18.419 22.2626 18.841 21.8407C19.2629 21.4187 19.5 20.8464 19.5 20.2497C19.5 19.653 19.2629 19.0807 18.841 18.6587C18.419 18.2367 17.8467 17.9997 17.25 17.9997C16.6533 17.9997 16.081 18.2367 15.659 18.6587C15.2371 19.0807 15 19.653 15 20.2497C15 20.8464 15.2371 21.4187 15.659 21.8407C16.081 22.2626 16.6533 22.4997 17.25 22.4997Z" fill="#1e0700"/>
</g>
</svg>
