<svg width="48" height="48" viewBox="0 0 48 48" fill="none" xmlns="http://www.w3.org/2000/svg">
<g id="Icons">
<path id="Vector" d="M9 40.5C8.60379 40.4948 8.22526 40.3351 7.94507 40.0549C7.66488 39.7747 7.50518 39.3962 7.5 39V9C7.5 8.60218 7.65804 8.22064 7.93934 7.93934C8.22064 7.65804 8.60218 7.5 9 7.5C9.39782 7.5 9.77936 7.65804 10.0607 7.93934C10.342 8.22064 10.5 8.60218 10.5 9V39C10.4948 39.3962 10.3351 39.7747 10.0549 40.0549C9.77474 40.3351 9.39621 40.4948 9 40.5Z" fill="#1A374D"/>
<path id="Vector_2" d="M39 40.4997H9C8.60218 40.4997 8.22064 40.3417 7.93934 40.0604C7.65804 39.7791 7.5 39.3975 7.5 38.9997C7.5 38.6019 7.65804 38.2203 7.93934 37.939C8.22064 37.6577 8.60218 37.4997 9 37.4997H39C39.3978 37.4997 39.7794 37.6577 40.0607 37.939C40.342 38.2203 40.5 38.6019 40.5 38.9997C40.5 39.3975 40.342 39.7791 40.0607 40.0604C39.7794 40.3417 39.3978 40.4997 39 40.4997ZM28 29.4997C27.8029 29.5006 27.6076 29.4622 27.4256 29.3866C27.2436 29.3111 27.0785 29.1999 26.94 29.0597L22 24.1197L17.06 29.0597C16.7757 29.3247 16.3996 29.4689 16.011 29.462C15.6224 29.4552 15.2516 29.2978 14.9768 29.0229C14.7019 28.7481 14.5445 28.3773 14.5377 27.9887C14.5308 27.6001 14.675 27.224 14.94 26.9397L20.94 20.9397C21.2213 20.6588 21.6025 20.501 22 20.501C22.3975 20.501 22.7787 20.6588 23.06 20.9397L28 25.8797L34.94 18.9397C35.2243 18.6747 35.6004 18.5305 35.989 18.5373C36.3776 18.5442 36.7484 18.7016 37.0232 18.9765C37.2981 19.2513 37.4555 19.622 37.4623 20.0106C37.4692 20.3993 37.325 20.7753 37.06 21.0597L29.06 29.0597C28.9215 29.1999 28.7564 29.3111 28.5744 29.3866C28.3924 29.4622 28.1971 29.5006 28 29.4997Z" fill="#1A374D"/>
<path id="Vector_3" d="M37 27.68C36.6038 27.6748 36.2253 27.5151 35.9451 27.2349C35.6649 26.9547 35.5052 26.5762 35.5 26.18V20.5H30C29.6022 20.5 29.2206 20.342 28.9393 20.0607C28.658 19.7794 28.5 19.3978 28.5 19C28.5 18.6022 28.658 18.2206 28.9393 17.9393C29.2206 17.658 29.6022 17.5 30 17.5H37C37.3962 17.5052 37.7747 17.6649 38.0549 17.9451C38.3351 18.2253 38.4948 18.6038 38.5 19V26.18C38.4948 26.5762 38.3351 26.9547 38.0549 27.2349C37.7747 27.5151 37.3962 27.6748 37 27.68Z" fill="#1A374D"/>
</g>
</svg>
